<svg width="169" height="50" viewBox="0 0 169 50" fill="none" xmlns="http://www.w3.org/2000/svg">
<path fill-rule="evenodd" clip-rule="evenodd" d="M19.3553 10.7864C16.7742 10.7864 13.711 11.2783 10.3641 14.7662V5.00507C10.3641 2.53922 8.13759 0.533325 5.40054 0.533325C2.66348 0.533325 0.436966 2.53922 0.436966 5.00507V36.8375C0.436966 39.3033 2.66348 41.3092 5.40054 41.3092C8.13759 41.3092 10.3641 39.3033 10.3641 36.8375V24.4827C10.3641 20.9309 12.2361 18.9697 15.6468 18.9697C18.9865 18.9697 20.7451 20.8734 20.7451 24.4827V36.8375C20.7451 39.3033 22.9716 41.3092 25.7086 41.3092C28.4457 41.3092 30.6722 39.3033 30.6722 36.8375V21.8891C30.6651 14.9387 26.439 10.7864 19.3553 10.7864ZM47.8608 11.0037C43.8191 11.0037 40.614 11.4764 37.4728 12.5369C35.8419 13.0863 34.7499 14.5044 34.7499 16.0632C34.7499 18.1457 36.5864 19.7747 38.9335 19.7747C39.4157 19.7747 39.8199 19.7108 40.3729 19.5447C42.2804 19.0081 44.2942 18.7526 46.5419 18.7526C51.8742 18.7526 53.0088 21.4037 53.0229 23.646C51.1722 23.103 48.8394 22.6047 45.5847 22.6047C37.1041 22.6047 32.2398 26.099 32.2398 32.1998V32.3084C32.2398 37.8214 36.8346 41.5266 43.6702 41.5266C47.5205 41.5266 50.605 40.4725 53.0655 38.3133C53.4838 39.8912 55.1644 41.3157 57.7454 41.3157C60.4612 41.3157 62.5884 39.4248 62.5884 37.0101V23.8312C62.5884 19.6853 61.383 16.4912 58.9934 14.3447C56.5258 12.128 52.7819 11.0037 47.8608 11.0037ZM46.4214 35.1192C43.6063 35.1192 41.862 33.9182 41.862 31.9826V31.874C41.862 29.5678 44.0034 28.2519 47.7403 28.2519C49.6548 28.2519 51.5622 28.5904 53.1435 29.2037V30.4238C53.1435 33.1836 50.3781 35.1192 46.4214 35.1192ZM75.8906 14.8433C78.4575 12.1155 81.62 10.7867 85.5341 10.7867C93.0007 10.7867 100.552 16.0442 100.552 26.0993V26.2079C100.552 30.8393 98.9712 34.7617 95.986 37.5597C93.256 40.1214 89.5475 41.5268 85.5341 41.5268C81.6696 41.5268 78.5993 40.3386 75.9402 37.8089V45.4747C75.9402 47.9406 73.7137 49.9464 70.9767 49.9464C68.2396 49.9464 66.0131 47.9406 66.0131 45.4747V15.4757C66.0131 13.0098 68.2396 11.0039 70.9767 11.0039C73.4797 11.0039 75.5502 12.6777 75.8906 14.8433ZM90.6324 26.0993C90.6324 21.7617 87.4344 18.4845 83.1941 18.4845C78.9255 18.4845 75.8197 21.685 75.8197 26.0993V26.2079C75.8197 30.6221 78.9184 33.8226 83.1941 33.8226C87.5053 33.8226 90.6324 30.6221 90.6324 26.2079V26.0993ZM122.364 10.7867C118.45 10.7867 115.287 12.1155 112.72 14.8433C112.38 12.6777 110.309 11.0039 107.806 11.0039C105.069 11.0039 102.843 13.0098 102.843 15.4757V45.4747C102.843 47.9406 105.069 49.9464 107.806 49.9464C110.543 49.9464 112.77 47.9406 112.77 45.4747V37.8089C115.429 40.3386 118.499 41.5268 122.364 41.5268C126.377 41.5268 130.086 40.1214 132.815 37.5597C135.801 34.7617 137.382 30.8393 137.382 26.2079V26.0993C137.382 16.0442 129.83 10.7867 122.364 10.7867ZM120.024 18.4845C124.264 18.4845 127.462 21.7617 127.462 26.0993V26.2079C127.462 30.6221 124.335 33.8226 120.024 33.8226C115.748 33.8226 112.649 30.6221 112.649 26.2079V26.0993C112.649 21.685 115.755 18.4845 120.024 18.4845ZM159.527 14.3767C160.448 12.1664 162.094 11.0038 164.285 11.0038C166.929 11.0038 169.007 12.8244 169 15.1369C169 15.8077 168.759 16.7787 168.546 17.2259L157.35 41.45C154.535 47.589 151.599 49.7674 146.132 49.7674C144.203 49.7674 142.721 49.5374 141.02 48.9881C139.85 48.6048 137.878 47.6082 137.878 45.2446C137.878 42.9193 139.913 41.533 141.878 41.533C142.658 41.533 143.126 41.6544 143.501 41.7694C144.274 41.9866 144.7 42.076 145.288 42.076C146.777 42.076 147.401 41.8588 148.153 40.562L148.38 40.0765L137.488 17.3409C137.24 16.7787 136.978 15.9099 136.978 15.303C136.978 12.85 139.084 10.9974 141.878 10.9974C144.182 10.9974 145.742 12.0834 146.636 14.3193L153.195 30.2067L159.527 14.3767Z" fill="#12AFCB"/>
</svg>
